<?xml version="1.0" standalone="no"?>
<!DOCTYPE svg PUBLIC "-//W3C//DTD SVG 20010904//EN"
 "http://www.w3.org/TR/2001/REC-SVG-20010904/DTD/svg10.dtd">
<svg version="1.0" xmlns="http://www.w3.org/2000/svg"
 width="260.000000pt" height="260.000000pt" viewBox="0 0 260.000000 260.000000"
 preserveAspectRatio="xMidYMid meet">
<metadata>
Created by potrace 1.11, written by Peter Selinger 2001-2013
</metadata>
<g transform="translate(0.000000,260.000000) scale(0.100000,-0.100000)"
fill="#000000" stroke="none">
<path d="M0 1510 c0 -819 3 -1096 12 -1110 9 -14 9 -25 0 -45 -8 -17 -12 -84
-12 -190 l0 -165 1210 0 1210 0 0 25 c0 24 3 25 60 25 57 0 60 -1 60 -25 0
-21 5 -25 30 -25 l30 0 0 1300 0 1300 -1300 0 -1300 0 0 -1090z"/>
</g>
</svg>
