<?xml version="1.0" encoding="utf-8"?>
<!-- Generator: Adobe Illustrator 25.2.2, SVG Export Plug-In . SVG Version: 6.00 Build 0)  -->
<svg version="1.1" id="Laag_1" xmlns="http://www.w3.org/2000/svg" xmlns:xlink="http://www.w3.org/1999/xlink" x="0px" y="0px"
	 viewBox="0 0 32 24" style="enable-background:new 0 0 32 24;" xml:space="preserve">
<g>
	<path d="M28.5,24h-25C1.6,24,0,22.4,0,20.5v-17C0,1.6,1.6,0,3.5,0h25C30.4,0,32,1.6,32,3.5v17C32,22.4,30.4,24,28.5,24z M3.5,2
		C2.7,2,2,2.7,2,3.5v17C2,21.3,2.7,22,3.5,22h25c0.8,0,1.5-0.7,1.5-1.5v-17C30,2.7,29.3,2,28.5,2C28.5,2,3.5,2,3.5,2z M16,15.5
		c-0.6,0-1.2-0.2-1.7-0.7l-10-9.1c-0.4-0.4-0.4-1-0.1-1.4c0.4-0.4,1-0.4,1.4-0.1l10,9.1c0.2,0.2,0.5,0.2,0.7,0l10-9.1
		c0.4-0.4,1-0.3,1.4,0.1c0.4,0.4,0.3,1-0.1,1.4l-10,9.1C17.2,15.3,16.6,15.5,16,15.5z M5,20c-0.3,0-0.5-0.1-0.7-0.3
		c-0.4-0.4-0.4-1,0-1.4l7-7c0.4-0.4,1-0.4,1.4,0c0.4,0.4,0.4,1,0,1.4l-7,7C5.5,19.9,5.3,20,5,20z M27,20c-0.3,0-0.5-0.1-0.7-0.3
		l-7-7c-0.4-0.4-0.4-1,0-1.4c0.4-0.4,1-0.4,1.4,0l7,7c0.4,0.4,0.4,1,0,1.4C27.5,19.9,27.3,20,27,20z" fill="#595959"/>
</g>
</svg>
