<?xml version="1.0" encoding="utf-8"?>
<!-- Generator: Adobe Illustrator 24.2.0, SVG Export Plug-In . SVG Version: 6.00 Build 0)  -->
<svg version="1.1" id="Laag_1" xmlns="http://www.w3.org/2000/svg" xmlns:xlink="http://www.w3.org/1999/xlink" x="0px" y="0px"
	 viewBox="0 0 11.2 425.5" style="enable-background:new 0 0 11.2 425.5;" xml:space="preserve">
<style type="text/css">
	.st0{fill:none;stroke:#FFFFFF;stroke-miterlimit:10;}
</style>
<g>
	<path class="st0" d="M10.7,0c0,10.6-10.2,10.6-10.2,21.3c0,10.6,10.2,10.6,10.2,21.3c0,10.6-10.2,10.6-10.2,21.3
		c0,10.6,10.2,10.6,10.2,21.3c0,10.6-10.2,10.6-10.2,21.3c0,10.6,10.2,10.6,10.2,21.3c0,10.6-10.2,10.6-10.2,21.3
		c0,10.6,10.2,10.6,10.2,21.3c0,10.6-10.2,10.6-10.2,21.3c0,10.6,10.2,10.6,10.2,21.3c0,10.6-10.2,10.6-10.2,21.3
		c0,10.6,10.2,10.6,10.2,21.3c0,10.6-10.2,10.6-10.2,21.3c0,10.6,10.2,10.6,10.2,21.3c0,10.6-10.2,10.6-10.2,21.3
		c0,10.6,10.2,10.6,10.2,21.3c0,10.6-10.2,10.6-10.2,21.3c0,10.6,10.2,10.6,10.2,21.3c0,10.6-10.2,10.6-10.2,21.3
		c0,10.6,10.2,10.6,10.2,21.3"/>
</g>
</svg>
