<svg width="42" height="33" viewBox="0 0 42 33" fill="none" xmlns="http://www.w3.org/2000/svg">
<g clip-path="url(#clip0)">
<path d="M19.2686 24.4465C18.0399 24.4465 16.8391 24.2809 15.75 23.9222C12.2593 22.7634 2.26197 17.1346 0.279255 16.0033C0.111702 15.893 0 15.7274 0 15.5343C0 15.3411 0.111702 15.148 0.279255 15.0652L10.0253 9.49164C10.137 9.43646 10.2766 9.40886 10.3883 9.43645L18.5705 10.7057L16.5319 6.34615C16.4202 6.09783 16.504 5.76672 16.7553 5.62876L26.5293 0.0827759C26.6968 -0.027592 26.9202 -0.027592 27.0878 0.0827759C29.0426 1.21405 38.9282 6.92559 40.9388 8.91221C42.3351 10.2918 42.363 12.0853 40.9668 13.4925C37.141 17.107 28.9309 21.4666 22.7593 23.8946H22.7314C21.6702 24.2533 20.4694 24.4465 19.2686 24.4465ZM1.67553 15.5343C4.55186 17.1346 13.0691 21.8804 16.0851 22.8737C18.0399 23.5084 20.4415 23.5084 22.3684 22.9013C28.4282 20.5008 36.4707 16.2517 40.1569 12.7199C41.1064 11.7542 41.1064 10.6781 40.129 9.71237C38.3138 7.86371 28.8471 2.37291 26.8085 1.18645L17.7606 6.34615L20.0226 11.1472C20.1064 11.3403 20.0785 11.561 19.9668 11.699C19.8551 11.8645 19.6316 11.9473 19.4362 11.9197L10.4162 10.5401L1.67553 15.5343Z" fill="white"/>
<path d="M19.2686 33.0002C18.0399 33.0002 16.8391 32.8346 15.75 32.4759C12.2593 31.317 2.26197 25.6883 0.279255 24.557L0 24.3915V15.3965H1.11702V23.7569C3.18351 24.9157 12.8457 30.3513 16.0851 31.3998C18.0399 32.0344 20.4415 32.0344 22.3684 31.4274C28.4282 29.0269 36.4707 24.7502 40.1848 21.246C41.1343 20.3079 40.883 19.6181 41.0226 18.404L40.9388 17.4659C42.3351 18.8455 42.363 20.639 40.9668 22.0461C37.141 25.6607 28.9309 30.0202 22.7593 32.4483H22.7314C21.6702 32.807 20.4694 33.0002 19.2686 33.0002Z" fill="white"/>
<path d="M41.9998 10.7886H40.8828V19.7836H41.9998V10.7886Z" fill="white"/>
<path d="M17.6209 6.12549H16.5039V10.9817H17.6209V6.12549Z" fill="white"/>
</g>
<defs>
<clipPath id="clip0">
<rect width="42" height="33" fill="white"/>
</clipPath>
</defs>
</svg>
