<?xml version="1.0" encoding="utf-8"?>
<!-- Generator: Adobe Illustrator 24.3.0, SVG Export Plug-In . SVG Version: 6.00 Build 0)  -->
<svg version="1.1" id="Laag_1" xmlns="http://www.w3.org/2000/svg" xmlns:xlink="http://www.w3.org/1999/xlink" x="0px" y="0px"
	 viewBox="0 0 46 37" style="enable-background:new 0 0 46 37;" xml:space="preserve">
<style type="text/css">
	.st0{stroke:#000000;stroke-width:4;stroke-linejoin:round;stroke-miterlimit:10;}
	.st1{clip-path:url(#SVGID_2_);}
	.st2{fill:#FFFFFF;}
</style>
<path class="st0" d="M44,13.2v-0.4h0c-0.1-0.7-0.4-1.3-1-1.9c-2-2-11.9-7.7-13.9-8.8C29,2,28.9,2,28.8,2c-0.1,0-0.2,0-0.3,0.1
	l-9.8,5.5c-0.2,0.1-0.2,0.3-0.2,0.5h0v0.1v4.2l-6.1-0.9c-0.1,0-0.3,0-0.4,0.1l-9.7,5.6c-0.1,0.1-0.2,0.2-0.2,0.3h0v0.1v8.9l0.3,0.2
	c2,1.1,12,6.8,15.5,7.9c1.1,0.4,2.3,0.5,3.5,0.5h0c1.2,0,2.4-0.2,3.5-0.6h0C30.9,32,39.1,27.7,43,24c0.7-0.7,1-1.5,1-2.3h0v0
	c0,0,0,0,0,0L44,13.2C44,13.2,44,13.2,44,13.2z"/>
<g>
	<defs>
		<rect id="SVGID_1_" x="2" y="2" width="42" height="33"/>
	</defs>
	<clipPath id="SVGID_2_">
		<use xlink:href="#SVGID_1_"  style="overflow:visible;"/>
	</clipPath>
	<g class="st1">
		<path class="st2" d="M21.3,26.4c-1.2,0-2.4-0.2-3.5-0.5C14.3,24.8,4.3,19.1,2.3,18C2.1,17.9,2,17.7,2,17.5c0-0.2,0.1-0.4,0.3-0.5
			l9.7-5.6c0.1-0.1,0.3-0.1,0.4-0.1l8.2,1.3l-2-4.4c-0.1-0.2,0-0.6,0.2-0.7l9.8-5.5c0.2-0.1,0.4-0.1,0.6,0c2,1.1,11.8,6.8,13.9,8.8
			c1.4,1.4,1.4,3.2,0,4.6c-3.8,3.6-12,8-18.2,10.4h0C23.7,26.3,22.5,26.4,21.3,26.4z M3.7,17.5c2.9,1.6,11.4,6.3,14.4,7.3
			c2,0.6,4.4,0.6,6.3,0c6.1-2.4,14.1-6.6,17.8-10.2c0.9-1,0.9-2,0-3c-1.8-1.8-11.3-7.3-13.3-8.5l-9,5.2l2.3,4.8
			c0.1,0.2,0.1,0.4-0.1,0.6c-0.1,0.2-0.3,0.2-0.5,0.2l-9-1.4L3.7,17.5z"/>
		<path class="st2" d="M21.3,35c-1.2,0-2.4-0.2-3.5-0.5c-3.5-1.2-13.5-6.8-15.5-7.9L2,26.4v-9h1.1v8.4c2.1,1.2,11.7,6.6,15,7.6
			c2,0.6,4.4,0.6,6.3,0c6.1-2.4,14.1-6.7,17.8-10.2c0.9-0.9,0.7-1.6,0.8-2.8l-0.1-0.9c1.4,1.4,1.4,3.2,0,4.6
			c-3.8,3.6-12,8-18.2,10.4h0C23.7,34.8,22.5,35,21.3,35z"/>
		<path class="st2" d="M44,12.8h-1.1v9H44V12.8z"/>
		<path class="st2" d="M19.6,8.1h-1.1V13h1.1V8.1z"/>
	</g>
</g>
</svg>
