<svg width="105" height="19" viewBox="0 0 105 19" fill="none" xmlns="http://www.w3.org/2000/svg">
<path d="M0 5.6713H8.83102V7.93981H2.51157V17.9051H0V5.6713Z" fill="white"/>
<path d="M22.6851 5.6713V17.9051H20.1735V17.0949C19.4444 17.7431 18.3911 18.0671 17.2569 18.0671C14.5832 18.1481 12.9629 16.4468 12.9629 13.7731C12.9629 11.1806 14.6643 9.47917 17.2569 9.47917C18.4721 9.47917 19.4444 9.80324 20.1735 10.4514V7.85879H11.8286V5.6713H22.6851ZM20.4166 13.7731C20.4166 12.4769 19.4444 11.6667 17.905 11.6667C16.3657 11.6667 15.3934 12.4769 15.3934 13.7731C15.3934 15.0694 16.3657 15.8796 17.905 15.8796C19.4444 15.8796 20.4166 15.0694 20.4166 13.7731Z" fill="white"/>
<path d="M36.2965 0V17.9051H33.7849V16.6898C32.9747 17.581 31.8405 18.0671 30.4632 18.0671C27.4655 18.0671 25.6021 15.5556 25.6021 11.7477C25.6021 7.93981 27.5465 5.42824 30.4632 5.42824C31.8405 5.42824 32.8937 5.91435 33.7849 6.80555V0H36.2965ZM34.028 11.8287C34.028 9.31713 32.8937 7.77778 31.1113 7.77778C29.3289 7.77778 28.1946 9.39815 28.1946 11.8287C28.1946 14.2593 29.3289 15.8796 31.1113 15.8796C32.8937 15.8796 34.028 14.2593 34.028 11.8287Z" fill="white"/>
<path d="M51.0416 15.6366V17.9051H39.2129V15.6366H43.8309V7.93981H39.2129V5.6713H46.3425V15.6366H51.0416ZM43.912 0H46.4235V3.15972H43.912V0Z" fill="white"/>
<path d="M56.2267 7.85879H52.1758V5.67129H56.2267V1.62036H58.7383V5.67129H64.8957V7.85879H58.7383V15.7176H63.5184V17.9861H56.2267V7.85879Z" fill="white"/>
<path d="M69.6761 5.6713V15.6366H74.6993V5.6713H77.2108V17.9051H67.1646V5.6713H69.6761Z" fill="white"/>
<path d="M91.3888 11.8287C91.3888 15.7176 89.4443 18.1481 86.5277 18.1481C85.1504 18.1481 84.0971 17.662 83.2059 16.7708V17.9861H80.6943V0H83.2059V6.88657C84.0161 5.99537 85.1504 5.50926 86.5277 5.50926C89.5254 5.42824 91.3888 7.93982 91.3888 11.8287ZM88.9582 11.8287C88.9582 9.31713 87.824 7.77778 86.0416 7.77778C84.2591 7.77778 83.1249 9.39815 83.1249 11.8287C83.1249 14.2593 84.2591 15.8796 86.0416 15.8796C87.824 15.8796 88.9582 14.2593 88.9582 11.8287Z" fill="white"/>
<path d="M102.488 13.9352L104.514 15.0694C103.623 16.9329 101.678 18.1481 99.4906 18.1481C95.9257 18.1481 93.6572 15.6366 93.6572 11.8287C93.6572 8.02082 95.8447 5.50925 99.3285 5.50925C102.812 5.50925 105 8.34489 105 12.8009H96.2498C96.4929 14.7454 97.7082 15.9606 99.4906 15.9606C100.868 15.8796 102.002 15.1505 102.488 13.9352ZM96.2498 10.7755H102.488C102.164 8.91202 101.03 7.69675 99.4095 7.69675C97.7892 7.69675 96.5739 8.83101 96.2498 10.7755Z" fill="white"/>
</svg>
