<svg width="25" height="25" viewBox="0 0 25 25" fill="none" xmlns="http://www.w3.org/2000/svg">
<path d="M13.75 14.7656C13.0469 15.3125 12.2656 15.7031 11.4844 16.0156C8.59374 16.875 5.31249 15.7813 3.59374 13.2813C2.10936 11.0938 1.95311 8.125 3.28124 5.85938C3.82811 4.76563 4.68749 3.82813 5.78124 3.20313C6.24999 2.96875 6.87499 3.125 7.03124 3.67188C7.10936 4.0625 6.87499 4.375 6.56249 4.60938C4.84374 5.625 3.82811 7.57813 3.90624 9.53125C4.06249 12.1875 6.32811 14.6094 9.14061 14.7656C11.25 14.8438 13.2812 13.6719 14.2187 11.7969C15.0781 10.0781 15 7.96875 13.9062 6.32813C13.2031 5.23438 12.0312 4.375 10.7031 3.98438C10.7031 3.98438 10.2344 3.82813 10.1562 3.35938C10.0781 2.96875 10.3906 2.5 10.8594 2.42188C10.9375 2.42188 11.0156 2.42188 11.0156 2.42188C11.4062 2.5 11.7969 2.65625 12.1875 2.8125C15.2344 4.14063 17.0312 7.8125 16.0937 11.0938C15.8594 12.0313 15.3906 12.8906 14.7656 13.5938L15.9375 14.7656C16.25 14.6094 16.5625 14.5313 16.9531 14.5313C16.9531 14.5313 16.9531 14.5313 17.0312 14.5313C17.6562 14.5313 18.2031 14.7656 18.6719 15.2344C19.7656 16.3281 20.9375 17.4219 22.0312 18.5938C22.7344 19.2969 22.8906 20.5469 22.4219 21.4063C21.7187 22.6563 19.8437 22.9688 18.75 21.875C17.6562 20.7813 16.4844 19.6875 15.3906 18.5156C14.6875 17.8125 14.5312 16.7188 14.9219 15.8594C14.9219 15.9375 13.75 14.7656 13.75 14.7656ZM17.0312 16.1719C16.4844 16.1719 16.0937 16.7969 16.3281 17.2656C16.3281 17.3438 16.4062 17.4219 16.4844 17.5C17.5781 18.5938 18.6719 19.6875 19.7656 20.7813C20.2344 21.25 21.0937 20.8594 21.0937 20.2344C21.0937 20.0781 21.0156 19.8438 20.8594 19.6875C19.7656 18.5938 18.6719 17.5 17.5 16.3281C17.4219 16.25 17.1875 16.1719 17.0312 16.1719Z" fill="#595959"/>
</svg>
